<svg width="1159" height="260" viewBox="0 0 1159 260" fill="none" xmlns="http://www.w3.org/2000/svg">
<path d="M260 0H1159V260H0L260 0Z" fill="#082E4A"/>
<path d="M0.398438 260L260.398 0V260H0.398438Z" fill="#082E4A"/>
<path d="M149.73 192.391L110.839 153.5L149.73 114.609V192.391Z" fill="#55B0E4"/>
<path fill-rule="evenodd" clip-rule="evenodd" d="M153.839 110.5L192.73 149.391V71.6094L153.839 110.5ZM155.054 110.5L191.823 147.27V73.7307L155.054 110.5Z" fill="#B6E9FF"/>
<path fill-rule="evenodd" clip-rule="evenodd" d="M68.3 106.5L107.191 145.391V67.6091L68.3 106.5ZM69.5147 106.5L106.284 143.27V69.7304L69.5147 106.5Z" fill="#B6E9FF"/>
<path fill-rule="evenodd" clip-rule="evenodd" d="M107.191 148.87L68.2998 109.979V187.761L107.191 148.87ZM105.982 148.87L69.2124 112.101V185.64L105.982 148.87Z" fill="#B6E9FF"/>
<path fill-rule="evenodd" clip-rule="evenodd" d="M192.73 153.5L153.839 114.609V192.391L192.73 153.5ZM191.521 153.5L154.751 116.73V190.27L191.521 153.5Z" fill="#B6E9FF"/>
<path d="M110.73 145.391L110.73 67.6091L149.621 106.5L110.73 145.391Z" fill="#B6E9FF"/>
</svg>
