<svg width="28" height="29" viewBox="0 0 28 29" fill="none" xmlns="http://www.w3.org/2000/svg">
<path fill-rule="evenodd" clip-rule="evenodd" d="M9.74352 9.75736V18.324L9.16426 18.9032L0.0183839 9.75736L9.36547 0.410281L9.74339 0.788406V0.0323544L9.74352 0.0322266V9.75736ZM9.74339 0.0323544V0.0322506L9.36543 0.410246L9.36547 0.410281L9.74339 0.0323544ZM8.97762 9.81666V17.5968L1.19751 9.81666L8.97762 2.03655V9.81666ZM9.16522 18.9049L0 9.73972V18.3451V28.0702L9.72514 18.3451L9.72511 18.345L9.16522 18.9049ZM0.765795 18.2858V10.5057L8.54591 18.2858L0.765795 26.0659V18.2858Z" fill="#55B0E4"/>
<path fill-rule="evenodd" clip-rule="evenodd" d="M27.662 9.72514V18.2918L27.0827 18.871L27.0777 18.866L27.6377 18.3059L27.6377 18.3059L27.0778 18.8658L17.937 9.72499L27.662 0V9.72514ZM18.6784 10.4667V18.2466V26.0267L26.4584 18.2467L27.0777 18.866L18.2907 27.653L17.9128 27.2749V28.0309L17.9126 28.0311V18.3059V9.70059L17.937 9.72499L17.9368 9.72514L18.6784 10.4667ZM17.9128 28.0309V28.0311L18.2908 27.6531L18.2907 27.653L17.9128 28.0309ZM26.4584 18.2467L18.6784 10.4667V10.4665L26.4585 18.2466L26.4584 18.2467ZM26.8962 9.78448V17.5646L19.1161 9.78448L26.8962 2.00437V9.78448Z" fill="#55B0E4"/>
<path fill-rule="evenodd" clip-rule="evenodd" d="M18.7027 9.74811L18.7027 9.74809L8.9776 0.0229492V0.0230007L8.97767 0.0230694L8.97767 0.429138L8.97609 0.799615L8.97767 0.798055L8.97766 9.80749L8.97766 18.3535L9.74639 17.5847L9.74708 17.5859L8.97583 18.3572L18.701 28.0823V18.3572V9.79056L18.1217 9.2113L17.5255 9.80755L17.5248 9.80632L18.1429 9.18827L18.7027 9.74811ZM17.5212 9.80484L17.5231 9.80295L17.5248 9.80632L9.74639 17.5847L9.74638 17.5847L17.5237 9.80738L17.5212 9.80484ZM17.5212 9.80484L9.74489 17.5821L9.74638 17.5847L9.74359 17.5875V9.80738V2.02727L17.5212 9.80484ZM17.9106 10.5422L17.5255 9.80755L9.74708 17.5859L10.1554 18.3025L10.1575 18.3003L17.9351 26.0779V18.2978V10.5177L17.9106 10.5422ZM17.9106 10.5422L17.9123 10.5455L10.1575 18.3003L10.155 18.2978L17.9106 10.5422ZM8.97767 0.798055L9.36644 0.412492L8.97938 0.025104L8.97767 0.429138L8.97767 0.798055ZM18.2858 27.6669L18.6997 27.2436V28.0808L18.2858 27.6669Z" fill="#55B0E4"/>
</svg>
