<svg width="577" height="586" viewBox="0 0 577 586" fill="none" xmlns="http://www.w3.org/2000/svg">
<path fill-rule="evenodd" clip-rule="evenodd" d="M203.33 204.021V382.347L191.279 394.404L0.989794 204.021L195.459 9.45657L203.319 17.3246V1.59263L203.33 1.58094V204.021ZM203.319 1.59263V1.58436L195.455 9.45279L195.459 9.45657L203.319 1.59263ZM187.395 205.258L187.395 367.21L25.5223 205.258L187.395 43.3055V205.258ZM0.602966 382.788V203.662L16.5386 219.605V381.552V543.504L178.408 381.555L191.292 394.445L0.602966 585.229V382.788Z" fill="#55B0E4"/>
<path fill-rule="evenodd" clip-rule="evenodd" d="M576.137 203.353V381.676L564.085 393.735L563.978 393.629L563.981 393.625L551.097 380.735L551.094 380.738L389.227 218.791V218.785L373.8 203.35L576.137 0.912706V203.353ZM373.8 203.35L373.797 203.353L389.227 218.791V380.732V542.684L551.094 380.738L563.978 393.629L381.16 576.537L373.3 568.67V584.401L373.292 584.409V381.969V202.842L373.8 203.35ZM373.3 584.401V584.41L381.164 576.542L381.16 576.537L373.3 584.401ZM560.202 204.585V366.538L398.329 204.585L560.202 42.633V204.585Z" fill="#55B0E4"/>
<path fill-rule="evenodd" clip-rule="evenodd" d="M187.401 203.831V382.957L203.336 367.014V205.067V43.1149L365.145 205.004L203.342 366.907L203.395 366.998L187.357 383.044L389.698 585.484V383.044V204.708L377.651 192.655L365.231 205.082L365.216 205.054L378.09 192.174L187.401 1.39023V9.04621L187.364 17.5577L187.401 17.5219V203.831ZM187.401 17.5219L195.486 9.49929L187.433 1.43534L187.401 9.04621V17.5219ZM373.243 220.374L365.231 205.082L203.395 366.998L211.883 381.902L211.934 381.851L373.762 543.759V381.807V219.855L373.243 220.374ZM373.243 220.374L373.274 220.431L211.934 381.851L211.89 381.807L373.243 220.374ZM365.216 205.054L365.206 205.064L365.145 205.004L365.174 204.974L365.216 205.054ZM381.063 576.828L389.676 568.017V585.444L381.063 576.828Z" fill="#55B0E4"/>
</svg>
